<svg width="63" height="117" viewBox="0 0 63 117" fill="none" xmlns="http://www.w3.org/2000/svg">
<path d="M59.4 88C58.9 88 58.9 87.8 58.9 87.6C58.9 87.4 58.9 87.2 59.4 87.2H60.5V85.9H59.2C58.3 85.9 57.8 86.7 57.8 87.5C57.8 87.6 57.8 87.7 57.8 87.9H57.3V89.2H60.4V87.9H59.4V88Z" fill="#231F20"/>
<path d="M47 89.3C46.3 89.3 45.7 88.8 45.7 88.1C45.7 87.4 46.3 86.9 47 86.9C47.7 86.9 48.3 87.5 48.3 88.1C48.3 88.7 47.7 89.3 47 89.3Z" fill="#231F20"/>
<path d="M51.2 89.3C50.5 89.3 49.9 88.8 49.9 88.1C49.9 87.4 50.5 86.9 51.2 86.9C51.9 86.9 52.4 87.5 52.4 88.1C52.5 88.7 51.9 89.3 51.2 89.3Z" fill="#231F20"/>
<path d="M18 66L20.8 64.5V84.3H18V66Z" fill="#231F20"/>
<path d="M57.7 66L60.4 64.5V84.3H57.7V66Z" fill="#231F20"/>
<path d="M47.6 81.6H35.9V84.3H47.6V81.6Z" fill="#231F20"/>
<path d="M34.4 78.4C34.4 75.4 32.6 74.4 30.4 74.4H28.2V71.7H30.6C33.9 71.7 37.2 73.9 37.2 78.1V81.6H38.9V84.3H25.6V81.6H34.4V78.4Z" fill="#231F20"/>
<path d="M47.7 81.6C49.1 81.6 49.7 81 49.7 79.8V69.4H52.5V79.6C52.5 82.9 50.2 84.3 47.5 84.3H44.4V81.6H47.7Z" fill="#231F20"/>
<path d="M0.9 79.7V76.3C0.9 74.1 2.2 71.7 5.6 71.7H10.8V74.4H5.6C4.3 74.4 3.6 74.9 3.6 76.2V79.7C3.6 80.9 4.2 81.5 5.6 81.5H12.7V84.2H5.3C3.6 84.2 2.7 85.6 2.7 86.9C2.7 88.5 4.1 89.2 5.5 89.2H12.8L11 91.7H5.3C2.7 91.7 0 90.1 0 87C0 85.4 0.7 83.6 2 82.7C1.2 81.8 0.9 81.1 0.9 79.7Z" fill="#231F20"/>
<path d="M12.3 116.5H0.900024V96.7H12.7L12.3 99.3H3.90002V105.1H11.6L11.1 107.6H3.90002V113.9H12.7L12.3 116.5Z" fill="#231F20"/>
<path d="M28.4001 116.5C26.4001 116.5 26.1 115.1 26.1 114.4C25.5 115.6 24.1001 116.5 21.4001 116.5C18.8001 116.5 15.8 114.9 15.8 109.3C15.8 105.2 17.7 102 22 102C23.7 102 25.1 102.3 26 102.6V96.8H28.8V113.8C28.8 114.3 29 114.6 29.5 114.6C29.7 114.6 29.9001 114.6 30.2001 114.5L30.6 116.1C29.9 116.4 29.4001 116.5 28.4001 116.5ZM26.1 104.8C25.4 104.6 24.2 104.2 22.8 104.2C20.2 104.2 18.9001 105.3 18.9001 109C18.9001 112.2 19.6 114 22.3 114C24.8 114 26.1 112.3 26.1 110.3V104.8Z" fill="#231F20"/>
<path d="M44.0999 116.5C41.9999 116.5 41.7999 115 41.7999 114.5C41.2999 115.3 40.4 116.5 37.7 116.5C34.6 116.5 33.2 114.9 33.2 112.4C33.2 108.7 36.2 107.6 39.5 107.6C40.3 107.6 41.4999 107.7 41.7999 107.8V106.5C41.7999 104.5 40.1 104.4 38.4 104.4C36.7 104.4 35.3 104.8 34.2 105.2L34.7 102.9C35.7 102.5 37.5 102.1 39.2 102.1C42.8 102.1 44.5999 103.2 44.5999 107.3V113.9C44.5999 114.4 44.7999 114.7 45.2999 114.7C45.5999 114.7 45.8 114.7 46 114.6L46.2999 116.2C45.6999 116.4 45.0999 116.5 44.0999 116.5ZM41.7999 109.7C41.2999 109.7 40.3999 109.6 39.7999 109.6C37.4999 109.6 36.2 110.2 36.2 112.1C36.2 114.1 38 114.2 38.7 114.2C40.4 114.2 41.7999 112.9 41.7999 111.1V109.7Z" fill="#231F20"/>
<path d="M60 116.5C57.9 116.5 57.7 115 57.7 114.5C57.2 115.3 56.3 116.5 53.6 116.5C50.5 116.5 49.1 114.9 49.1 112.4C49.1 108.7 52.1 107.6 55.4 107.6C56.2 107.6 57.4 107.7 57.7 107.8V106.5C57.7 104.5 56 104.4 54.3 104.4C52.6 104.4 51.2 104.8 50.1 105.2L50.6 102.9C51.6 102.5 53.4 102.1 55.1 102.1C58.7 102.1 60.5 103.2 60.5 107.3V113.9C60.5 114.4 60.7 114.7 61.2 114.7C61.5 114.7 61.7 114.7 61.9 114.6L62.2 116.2C61.5 116.4 61 116.5 60 116.5ZM57.7 109.7C57.2 109.7 56.3 109.6 55.7 109.6C53.4 109.6 52.1 110.2 52.1 112.1C52.1 114.1 53.9 114.2 54.6 114.2C56.3 114.2 57.7 112.9 57.7 111.1V109.7Z" fill="#231F20"/>
<mask id="mask0_3_9582" style="mask-type:luminance" maskUnits="userSpaceOnUse" x="15" y="39" width="16" height="14">
<path d="M17.2 41.2C16.3 42.1 15.7 43.3 15.7 44.7C15.7 46.1 16.3 47.3 17.2 48.2L20.2 51.1C21.4 52.2 22.9999 52.6 24.5999 52.3C26.2999 52 27.5999 50.6 28.7999 49.3C29.6999 48.4 29.8 48.4 30.7 47.5L24.2999 41.1C23.3999 40.2 22.1999 39.7 20.7999 39.7C19.3999 39.8 18.1 40.3 17.2 41.2Z" fill="white"/>
</mask>
<g mask="url(#mask0_3_9582)">
<path d="M22.9999 32.3L37.0999 46L23.4999 60.1L9.29993 46.4L22.9999 32.3Z" fill="url(#paint0_linear_3_9582)"/>
</g>
<mask id="mask1_3_9582" style="mask-type:luminance" maskUnits="userSpaceOnUse" x="20" y="39" width="26" height="21">
<path d="M37.1 41.1L30.6 47.5C29.7 48.4 29.6 48.4 28.7 49.3C27.5 50.5 26.2 51.9 24.5 52.3C22.9 52.6 21.2 52.1 20.1 51L27.1 58C28 58.9 29.2 59.5 30.6 59.5C32 59.5 33.2 58.9 34.1 58L44.1 48.1C45 47.2 45.6 46 45.6 44.6C45.6 43.2 45 42 44.1 41.1C43.2 40.2 42 39.6 40.6 39.6C39.3 39.7 38 40.2 37.1 41.1Z" fill="white"/>
</mask>
<g mask="url(#mask1_3_9582)">
<path d="M10.2 49.3L33.2999 27L55.5 49.9L32.5 72.3L10.2 49.3Z" fill="url(#paint1_linear_3_9582)"/>
</g>
<mask id="mask2_3_9582" style="mask-type:luminance" maskUnits="userSpaceOnUse" x="30" y="7" width="31" height="28">
<path d="M36.7999 7.09998C35.0999 7.39998 33.7999 8.79998 32.5999 10.1C31.6999 11 31.6 11 30.7 11.9L52 33.2C52.9 34.1 54.1 34.7 55.5 34.7C56.9 34.7 58.1 34.1 59 33.2C59.9 32.3 60.5 31.1 60.5 29.7C60.5 28.3 59.9 27.1 59 26.2L41.2 8.39998C40.3 7.59998 38.9999 7.09998 37.7999 7.09998C37.3999 7.09998 37.0999 7.09998 36.7999 7.09998Z" fill="white"/>
</mask>
<g mask="url(#mask2_3_9582)">
<path d="M46.7 49.4999L17 21.9L44.5 -7.80005L74.3 19.9L46.7 49.4999Z" fill="url(#paint2_linear_3_9582)"/>
</g>
<mask id="mask3_3_9582" style="mask-type:luminance" maskUnits="userSpaceOnUse" x="0" y="0" width="42" height="35">
<path d="M30.7 0C29.3 0 28.1 0.6 27.2 1.5L2.30002 26.3C1.40002 27.2 0.900024 28.4 0.900024 29.8C0.900024 31.2 1.50002 32.4 2.30002 33.3C3.20002 34.2 4.40002 34.8 5.80002 34.8C7.20002 34.8 8.40002 34.2 9.30002 33.3L30.7 12C31.6 11.1 31.7 11.1 32.6 10.2C33.8 9 35.1 7.6 36.8 7.2C38.4 6.9 40.1 7.4 41.2 8.5L34.2 1.5C33.3 0.5 32.1 0 30.7 0Z" fill="white"/>
</mask>
<g mask="url(#mask3_3_9582)">
<path d="M58.6 16.9L21.6 54.9L-16.5 17.8L20.5 -20.2L58.6 16.9Z" fill="url(#paint3_linear_3_9582)"/>
</g>
<defs>
<linearGradient id="paint0_linear_3_9582" x1="17.3882" y1="40.6108" x2="34.8791" y2="57.5235" gradientUnits="userSpaceOnUse">
<stop stop-color="#AADFF8"/>
<stop offset="0.0354541" stop-color="#A0D3F1"/>
<stop offset="0.6587" stop-color="#004F9B"/>
<stop offset="1" stop-color="#163681"/>
</linearGradient>
<linearGradient id="paint1_linear_3_9582" x1="25.717" y1="56.5162" x2="46.4604" y2="36.4233" gradientUnits="userSpaceOnUse">
<stop stop-color="#AADFF8"/>
<stop offset="0.6587" stop-color="#004F9B"/>
<stop offset="1" stop-color="#163681"/>
</linearGradient>
<linearGradient id="paint2_linear_3_9582" x1="58.6984" y1="33.0211" x2="19.4522" y2="-3.47862" gradientUnits="userSpaceOnUse">
<stop stop-color="#AADFF8"/>
<stop offset="0.6587" stop-color="#004F9B"/>
<stop offset="1" stop-color="#163681"/>
</linearGradient>
<linearGradient id="paint3_linear_3_9582" x1="35.289" y1="2.71463" x2="-2.58387" y2="41.5994" gradientUnits="userSpaceOnUse">
<stop stop-color="#AADFF8"/>
<stop offset="0.6587" stop-color="#004F9B"/>
<stop offset="1" stop-color="#163681"/>
</linearGradient>
</defs>
</svg>
