<svg width="186" height="54" viewBox="0 0 186 54" fill="none" xmlns="http://www.w3.org/2000/svg">
<path d="M31.8938 37.8249C29.5802 37.8249 29.1671 36.2488 29.1671 35.4193C28.5061 36.8295 26.8536 37.8249 23.7138 37.8249C20.6566 37.8249 17.2689 36 17.2689 29.447C17.2689 24.7189 19.4172 20.9032 24.54 20.9032C26.5231 20.9032 28.1756 21.235 29.1671 21.5668V14.8479H32.3895V34.6728C32.3895 35.2534 32.6374 35.5852 33.2158 35.5852C33.4637 35.5852 33.7115 35.5852 34.042 35.5023L34.4552 37.4101C33.6289 37.659 33.0505 37.8249 31.8938 37.8249ZM29.1671 24.2212C28.3408 23.9723 27.0188 23.5576 25.2837 23.5576C22.2265 23.5576 20.7392 24.8018 20.7392 29.1981C20.7392 32.9309 21.5655 35.0046 24.7053 35.0046C27.5972 35.0046 29.0845 33.0138 29.0845 30.6912V24.2212H29.1671Z" fill="#231F20"/>
<path d="M50.1541 37.8249C47.758 37.8249 47.4275 36.083 47.4275 35.4194C46.8491 36.3318 45.7749 37.8249 42.7178 37.8249C39.1649 37.8249 37.5123 36 37.5123 33.0139C37.5123 28.7005 40.9826 27.3733 44.7834 27.3733C45.6923 27.3733 47.0143 27.5392 47.4275 27.5392V26.0461C47.4275 23.7235 45.4444 23.5576 43.4614 23.5576C41.4784 23.5576 39.8259 23.9724 38.6691 24.4701L39.2475 21.7328C40.4042 21.318 42.4699 20.8203 44.4529 20.8203C48.6669 20.8203 50.7325 22.0646 50.7325 26.8756V34.5069C50.7325 35.0876 50.9804 35.4194 51.5588 35.4194C51.8893 35.4194 52.1372 35.4194 52.385 35.3364L52.7982 37.2443C51.9719 37.659 51.3109 37.8249 50.1541 37.8249ZM47.4275 29.8618C46.8491 29.7788 45.7749 29.6959 45.0313 29.6959C42.3873 29.6959 40.9 30.3595 40.9 32.5991C40.9 34.9217 42.9657 35.0046 43.7919 35.0046C45.7749 35.0046 47.4275 33.5116 47.4275 31.4378V29.8618Z" fill="#231F20"/>
<path d="M68.745 37.8249C66.3488 37.8249 66.0183 36.083 66.0183 35.4194C65.4399 36.3318 64.3658 37.8249 61.3086 37.8249C57.7557 37.8249 56.1031 36 56.1031 33.0139C56.1031 28.7005 59.5734 27.3733 63.3742 27.3733C64.2831 27.3733 65.6052 27.5392 66.0183 27.5392V26.0461C66.0183 23.7235 64.0353 23.5576 62.0522 23.5576C60.0692 23.5576 58.4167 23.9724 57.2599 24.4701L57.8383 21.7328C58.9951 21.318 61.0607 20.8203 63.0437 20.8203C67.2577 20.8203 69.3233 22.0646 69.3233 26.8756V34.5069C69.3233 35.0876 69.5712 35.4194 70.1496 35.4194C70.4801 35.4194 70.728 35.4194 70.9759 35.3364L71.389 37.2443C70.4801 37.659 69.9017 37.8249 68.745 37.8249ZM66.0183 29.8618C65.4399 29.7788 64.3658 29.6959 63.6221 29.6959C60.9781 29.6959 59.4908 30.3595 59.4908 32.5991C59.4908 34.9217 61.5565 35.0046 62.3827 35.0046C64.3658 35.0046 66.0183 33.5116 66.0183 31.4378V29.8618Z" fill="#231F20"/>
<path d="M183.761 42.1383C183.182 42.1383 183.182 41.8894 183.182 41.7235C183.182 41.5576 183.182 41.3088 183.761 41.3088H185V39.8157H183.513C182.439 39.8157 181.943 40.7281 181.943 41.7235C181.943 41.8894 181.943 41.9724 182.025 42.1383H181.447V43.6313H185.083V42.1383H183.761Z" fill="#231F20"/>
<path d="M169.879 43.6313C169.053 43.6313 168.392 42.9677 168.392 42.1382C168.392 41.3917 169.053 40.6451 169.879 40.6451C170.706 40.6451 171.367 41.3087 171.367 42.1382C171.367 43.0507 170.706 43.6313 169.879 43.6313Z" fill="#231F20"/>
<path d="M174.754 43.6313C173.928 43.6313 173.267 42.9677 173.267 42.1382C173.267 41.3917 173.928 40.6451 174.754 40.6451C175.581 40.6451 176.159 41.3087 176.159 42.1382C176.242 43.0507 175.581 43.6313 174.754 43.6313Z" fill="#231F20"/>
<path d="M135.59 16.4239L138.812 14.682V37.8249H135.59V16.4239Z" fill="#231F20"/>
<path d="M181.778 16.4239L185 14.682V37.8249H181.778V16.4239Z" fill="#231F20"/>
<path d="M170.045 34.6728H156.411V37.8249H170.045V34.6728Z" fill="#231F20"/>
<path d="M154.676 31.023C154.676 27.5391 152.611 26.2949 149.966 26.2949H147.405V23.1428H150.132C154.015 23.1428 157.733 25.7143 157.733 30.6912V34.7557H159.716V37.9078H144.348V34.7557H154.594V31.023H154.676Z" fill="#231F20"/>
<path d="M170.788 34.6729C172.358 34.6729 173.102 33.9263 173.102 32.5162V20.4885H176.324V32.3503C176.324 36.2489 173.68 37.8249 170.54 37.8249H166.905V34.6729H170.788Z" fill="#231F20"/>
<path d="M115.759 32.5161V28.5345C115.759 25.9631 117.247 23.1428 121.213 23.1428H127.244V26.2949H121.213C119.725 26.2949 118.899 26.8755 118.899 28.4516V32.5161C118.899 33.9262 119.56 34.6728 121.213 34.6728H129.558V37.8249H120.882C118.899 37.8249 117.908 39.4838 117.908 40.894C117.908 42.8018 119.477 43.5484 121.13 43.5484H129.558L127.41 46.4516H120.717C117.66 46.4516 114.603 44.5437 114.603 40.9769C114.603 39.152 115.429 37.0783 116.916 35.917C116.09 34.9216 115.759 34.0921 115.759 32.5161Z" fill="#231F20"/>
<mask id="mask0_1_164" style="mask-type:luminance" maskUnits="userSpaceOnUse" x="83" y="35" width="10" height="8">
<path d="M84.6919 35.8341C84.1961 36.3318 83.8656 37.0784 83.8656 37.9079C83.8656 38.7374 84.1961 39.401 84.6919 39.9816L86.427 41.6406C87.088 42.2212 88.0795 42.553 88.9884 42.3871C89.9799 42.2212 90.7236 41.3917 91.3846 40.6452C91.8803 40.0645 91.963 40.1475 92.4587 39.5669L88.7405 35.8341C88.2448 35.3364 87.5012 35.0046 86.6749 35.0046C85.9313 35.0046 85.1876 35.3364 84.6919 35.8341Z" fill="white"/>
</mask>
<g mask="url(#mask0_1_164)">
<path d="M87.9969 30.6913L96.2595 38.6544L88.3274 46.8664L80.0648 38.9033L87.9969 30.6913Z" fill="url(#paint0_linear_1_164)"/>
</g>
<mask id="mask1_1_164" style="mask-type:luminance" maskUnits="userSpaceOnUse" x="86" y="34" width="16" height="13">
<path d="M96.2595 35.8341L92.4587 39.5668C91.963 40.0645 91.8803 40.0645 91.3846 40.6451C90.7236 41.3917 89.9799 42.1382 88.9884 42.3871C88.0795 42.553 87.088 42.3041 86.427 41.6405L90.4757 45.705C90.9714 46.2027 91.7151 46.5345 92.5413 46.5345C93.3676 46.5345 94.0286 46.2027 94.607 45.705L100.391 39.8986C100.887 39.4009 101.217 38.6544 101.217 37.8249C101.217 36.9954 100.887 36.3318 100.391 35.7511C99.8951 35.2534 99.1514 34.9216 98.3252 34.9216C97.4989 34.9216 96.7553 35.2534 96.2595 35.8341Z" fill="white"/>
</mask>
<g mask="url(#mask1_1_164)">
<path d="M80.5605 40.5622L94.0286 27.5391L106.918 40.894L93.5329 54L80.5605 40.5622Z" fill="url(#paint1_linear_1_164)"/>
</g>
<mask id="mask2_1_164" style="mask-type:luminance" maskUnits="userSpaceOnUse" x="92" y="15" width="18" height="18">
<path d="M96.0942 15.9263C95.1027 16.0922 94.359 16.9217 93.6154 17.6682C93.1196 18.2488 93.037 18.1659 92.5413 18.7465L104.935 31.1889C105.431 31.6866 106.175 32.0184 107.001 32.0184C107.827 32.0184 108.488 31.6866 109.066 31.1889C109.562 30.6912 109.893 29.9447 109.893 29.1152C109.893 28.2857 109.562 27.6221 109.066 27.0415L98.6556 16.6728C98.0772 16.1751 97.4162 15.9263 96.6726 15.9263C96.4247 15.9263 96.2594 15.9263 96.0942 15.9263Z" fill="white"/>
</mask>
<g mask="url(#mask2_1_164)">
<path d="M101.795 40.7281L84.5265 24.553L100.556 7.21655L117.825 23.3917L101.795 40.7281Z" fill="url(#paint2_linear_1_164)"/>
</g>
<mask id="mask3_1_164" style="mask-type:luminance" maskUnits="userSpaceOnUse" x="75" y="11" width="24" height="22">
<path d="M92.5413 11.7788C91.7151 11.7788 91.054 12.1106 90.4757 12.6083L76.0161 27.1244C75.5203 27.6221 75.1898 28.3687 75.1898 29.1982C75.1898 30.0277 75.5203 30.6913 76.0161 31.2719C76.5118 31.7696 77.2555 32.1014 78.0817 32.1014C78.908 32.1014 79.569 31.7696 80.1474 31.2719L92.6239 18.8295C93.1197 18.3318 93.2023 18.3318 93.6981 17.7512C94.3591 17.0046 95.1027 16.2581 96.1769 16.0092C97.0858 15.8433 98.0773 16.0922 98.7383 16.7558L94.6896 12.6913C94.0286 12.1106 93.3676 11.7788 92.5413 11.7788Z" fill="white"/>
</mask>
<g mask="url(#mask3_1_164)">
<path d="M108.736 21.6498L87.2532 43.7972L65.1094 22.1475L86.5922 0L108.736 21.6498Z" fill="url(#paint3_linear_1_164)"/>
</g>
<path d="M13.3028 37.8249H0V14.682H13.7986L13.3028 17.7511H3.4703V24.47H12.4766L11.8982 27.4562H3.4703V34.8387H13.7986L13.3028 37.8249Z" fill="#231F20"/>
<defs>
<linearGradient id="paint0_linear_1_164" x1="84.7667" y1="35.484" x2="94.9742" y2="45.3157" gradientUnits="userSpaceOnUse">
<stop stop-color="#AADFF8"/>
<stop offset="0.0354541" stop-color="#A0D3F1"/>
<stop offset="0.6587" stop-color="#004F9B"/>
<stop offset="1" stop-color="#163681"/>
</linearGradient>
<linearGradient id="paint1_linear_1_164" x1="89.6118" y1="44.7596" x2="101.718" y2="33.0792" gradientUnits="userSpaceOnUse">
<stop stop-color="#AADFF8"/>
<stop offset="0.6587" stop-color="#004F9B"/>
<stop offset="1" stop-color="#163681"/>
</linearGradient>
<linearGradient id="paint2_linear_1_164" x1="108.777" y1="31.0706" x2="85.8764" y2="9.85588" gradientUnits="userSpaceOnUse">
<stop stop-color="#AADFF8"/>
<stop offset="0.6587" stop-color="#004F9B"/>
<stop offset="1" stop-color="#163681"/>
</linearGradient>
<linearGradient id="paint3_linear_1_164" x1="95.1673" y1="13.3855" x2="73.0598" y2="35.9952" gradientUnits="userSpaceOnUse">
<stop stop-color="#AADFF8"/>
<stop offset="0.6587" stop-color="#004F9B"/>
<stop offset="1" stop-color="#163681"/>
</linearGradient>
</defs>
</svg>
