<svg width="57" height="57" viewBox="0 0 57 57" fill="none" xmlns="http://www.w3.org/2000/svg">
<mask id="mask0_12_26" style="mask-type:luminance" maskUnits="userSpaceOnUse" x="38" y="28" width="13" height="15">
<path d="M39.4689 41.411C40.331 42.2718 41.4806 42.8456 42.8218 42.8456C44.163 42.8456 45.3126 42.2718 46.1747 41.411L48.9529 38.5419C50.0067 37.3942 50.3899 35.864 50.1025 34.3338C49.8151 32.708 48.4739 31.4647 47.2285 30.317C46.3663 29.4563 46.3663 29.3607 45.5042 28.4999L39.3731 34.6207C38.5109 35.4815 38.0319 36.6291 38.0319 37.9681C38.1277 39.307 38.6067 40.5503 39.4689 41.411Z" fill="white"/>
</mask>
<g mask="url(#mask0_12_26)">
<path d="M30.9428 35.8641L44.0672 22.3792L57.5748 35.3859L44.4504 48.9664L30.9428 35.8641Z" fill="url(#paint0_linear_12_26)"/>
</g>
<mask id="mask1_12_26" style="mask-type:luminance" maskUnits="userSpaceOnUse" x="37" y="14" width="20" height="25">
<path d="M39.3731 22.3793L45.5042 28.5957C46.3664 29.4565 46.3664 29.5521 47.2286 30.4129C48.3782 31.5605 49.7193 32.8038 50.1025 34.4296C50.3899 35.9598 49.9109 37.5857 48.8572 38.6377L55.563 31.9431C56.4252 31.0823 57 29.9347 57 28.5957C57 27.2568 56.4252 26.1092 55.563 25.2484L46.079 15.6847C45.2168 14.8239 44.0673 14.2501 42.7261 14.2501C41.3849 14.2501 40.2353 14.8239 39.3731 15.6847C38.5109 16.5454 37.9362 17.693 37.9362 19.032C38.032 20.2753 38.5109 21.5186 39.3731 22.3793Z" fill="white"/>
</mask>
<g mask="url(#mask1_12_26)">
<path d="M47.2286 48.1058L25.8655 26.0135L47.8033 4.78197L69.2622 26.7786L47.2286 48.1058Z" fill="url(#paint1_linear_12_26)"/>
</g>
<mask id="mask2_12_26" style="mask-type:luminance" maskUnits="userSpaceOnUse" x="6" y="0" width="28" height="29">
<path d="M6.8017 22.6661C7.08909 24.2919 8.43027 25.5352 9.67565 26.6829C10.5378 27.5436 10.5378 27.6393 11.4 28.5L31.8051 8.12918C32.6672 7.26844 33.242 6.12079 33.242 4.78186C33.242 3.44293 32.6672 2.29528 31.8051 1.43454C30.9429 0.573803 29.7933 -2.2614e-05 28.4521 -2.263e-05C27.1109 -2.2646e-05 25.9614 0.573803 25.0992 1.43454L8.04708 18.458C7.28069 19.3188 6.8017 20.5621 6.8017 21.7097C6.8017 22.0923 6.8017 22.3792 6.8017 22.6661Z" fill="white"/>
</mask>
<g mask="url(#mask2_12_26)">
<path d="M47.4201 13.1979L20.9798 41.6023L-7.47232 15.3019L19.0638 -13.1981L47.4201 13.1979Z" fill="url(#paint2_linear_12_26)"/>
</g>
<mask id="mask3_12_26" style="mask-type:luminance" maskUnits="userSpaceOnUse" x="0" y="18" width="34" height="39">
<path d="M3.39859e-07 28.5C3.23893e-07 29.8389 0.57479 30.9866 1.43697 31.8473L25.1949 55.6611C26.0571 56.5218 27.2067 57 28.5479 57C29.8891 57 31.0386 56.4262 31.9008 55.6611C32.763 54.8003 33.3378 53.6527 33.3378 52.3138C33.3378 50.9748 32.763 49.8272 31.9008 48.9664L11.4958 28.5C10.6336 27.6392 10.6336 27.5436 9.77142 26.6829C8.62184 25.5352 7.28067 24.2919 6.89748 22.6661C6.61008 21.1359 7.08907 19.51 8.14285 18.458L1.43697 25.1527C0.478992 26.0134 3.55826e-07 27.161 3.39859e-07 28.5Z" fill="white"/>
</mask>
<g mask="url(#mask3_12_26)">
<path d="M16.1899 1.81711L52.5932 37.203L17.0521 73.641L-19.3513 38.2551L16.1899 1.81711Z" fill="url(#paint3_linear_12_26)"/>
</g>
<defs>
<linearGradient id="paint0_linear_12_26" x1="38.9045" y1="41.231" x2="55.0785" y2="24.476" gradientUnits="userSpaceOnUse">
<stop stop-color="#AADFF8"/>
<stop offset="0.0354541" stop-color="#A0D3F1"/>
<stop offset="0.6587" stop-color="#004F9B"/>
<stop offset="1" stop-color="#163681"/>
</linearGradient>
<linearGradient id="paint1_linear_12_26" x1="54.1415" y1="33.2657" x2="34.9262" y2="13.3949" gradientUnits="userSpaceOnUse">
<stop stop-color="#AADFF8"/>
<stop offset="0.6587" stop-color="#004F9B"/>
<stop offset="1" stop-color="#163681"/>
</linearGradient>
<linearGradient id="paint2_linear_12_26" x1="31.6336" y1="1.72296" x2="-3.26955" y2="39.3155" gradientUnits="userSpaceOnUse">
<stop stop-color="#AADFF8"/>
<stop offset="0.6587" stop-color="#004F9B"/>
<stop offset="1" stop-color="#163681"/>
</linearGradient>
<linearGradient id="paint3_linear_12_26" x1="2.60058" y1="24.1112" x2="39.7907" y2="60.3943" gradientUnits="userSpaceOnUse">
<stop stop-color="#AADFF8"/>
<stop offset="0.6587" stop-color="#004F9B"/>
<stop offset="1" stop-color="#163681"/>
</linearGradient>
</defs>
</svg>
