<svg width="107" height="107" viewBox="0 0 107 107" fill="none" xmlns="http://www.w3.org/2000/svg">
<path d="M32.5051 54.8651L26.6752 101.011H80.3249L74.4949 54.8651H32.5051Z" fill="white"/>
<path d="M53.5002 15.1296C56.0542 15.1296 58.1147 13.0688 58.1147 10.5151C58.1147 7.96137 56.0539 5.91797 53.5002 5.91797C50.9465 5.91797 48.8856 7.97881 48.8856 10.5325C48.8856 13.0862 50.9462 15.1296 53.5002 15.1296Z" fill="white"/>
<path d="M69.7923 36.882C69.7923 35.8078 69.1583 34.8389 68.2423 34.4689C66.4281 33.7292 64.5435 33.1481 62.6061 32.6724L56.0541 43.6806C54.8915 45.618 52.0913 45.618 50.9464 43.6806L44.3944 32.6724C42.457 33.1304 40.5899 33.7292 38.7582 34.4689C37.8248 34.8564 37.2082 35.8075 37.2082 36.882V48.9294H69.7926V36.882H69.7923Z" fill="#9BCBEB"/>
<path d="M88.0923 101.011H86.2957L80.4657 54.8649H81.2934C82.9314 54.8649 84.27 53.544 84.27 51.8883C84.27 50.2326 82.9489 48.9118 81.2934 48.9118H75.7278V36.8644C75.7278 33.3418 73.6495 30.2241 70.4438 28.9207C67.6432 27.7759 64.6667 26.9482 61.6724 26.3667C60.457 26.1379 59.2064 26.7013 58.5724 27.7759L53.4999 36.3535L48.4273 27.811C47.7933 26.7367 46.5602 26.1907 45.3274 26.4019C42.2979 26.9479 39.3565 27.811 36.556 28.9559C33.3328 30.2416 31.272 33.3593 31.272 36.8995V48.9469H25.7066C24.0686 48.9469 22.73 50.2678 22.73 51.9235C22.73 53.5615 24.0509 54.9 25.7066 54.9H26.5343L20.7043 101.047H18.9078C17.2698 101.047 15.9312 102.368 15.9312 104.023C15.9312 105.679 17.2521 107 18.9078 107H88.0923C89.7303 107 91.0688 105.679 91.0688 104.023C91.0514 102.333 89.7303 101.011 88.0923 101.011ZM26.6752 101.011L32.5051 54.8649H74.4775L80.3074 101.011H26.6752ZM37.208 36.8821C37.208 35.8078 37.842 34.839 38.7579 34.469C40.5722 33.7293 42.4568 33.1481 44.3942 32.6724L50.9462 43.6806C52.1087 45.6181 54.909 45.6181 56.0539 43.6806L62.6058 32.6724C64.5433 33.1304 66.4104 33.7293 68.2421 34.469C69.1755 34.8564 69.7921 35.8075 69.7921 36.8821V48.9295H37.208V36.8821Z" fill="#003594"/>
<path d="M53.5002 21.1005C59.3124 21.1005 64.0504 16.3625 64.0504 10.5502C64.0504 4.73797 59.3124 0 53.5002 0C47.6879 0 42.9496 4.73797 42.9496 10.5502C42.9496 16.3625 47.6876 21.1005 53.5002 21.1005ZM53.5002 5.93568C56.0541 5.93568 58.1147 7.99652 58.1147 10.5502C58.1147 13.1039 56.0539 15.1648 53.5002 15.1648C50.9464 15.1648 48.8856 13.1039 48.8856 10.5502C48.8856 7.99652 50.9462 5.93568 53.5002 5.93568Z" fill="#003594"/>
<path d="M69.2463 60.8008H37.7539L37.0317 66.4899H47.4939C49.1319 66.4899 50.4705 67.8107 50.4705 69.4664C50.4705 71.1044 49.1496 72.443 47.4939 72.443H36.2742L35.6048 77.727H41.8751C43.5131 77.727 44.8516 79.0478 44.8516 80.7035C44.8516 82.3415 43.5308 83.6801 41.8751 83.6801H34.8474L33.4208 95.0935H73.5612L69.2463 60.8008Z" fill="#9BCBEB"/>
</svg>
