<svg width="122" height="122" viewBox="0 0 122 122" fill="none" xmlns="http://www.w3.org/2000/svg">
<path d="M105.535 45.7262H94.7645C96.2299 47.6086 97.1115 49.9676 97.1115 52.5291V75.6424C97.1115 81.7543 92.1076 86.7463 86.0076 86.7463H58.8674C60.309 90.4397 63.8951 93.0727 68.0889 93.0727H105.535C110.968 93.0727 115.423 88.6287 115.423 83.184V55.6149C115.412 50.1701 110.968 45.7262 105.535 45.7262Z" fill="#9BCBEB"/>
<path d="M93.0131 69.3875V34.1099C93.0131 25.2697 85.7812 18.0378 76.941 18.0378H23.6137C14.7734 18.0378 7.5416 25.2697 7.5416 34.1099V69.3875C7.5416 77.7869 14.0705 84.7209 22.2912 85.4C22.2912 85.4 19.9084 103.914 22.875 103.914C25.8416 103.914 45.3211 85.4595 45.3211 85.4595H76.9291C85.7812 85.4595 93.0131 78.2277 93.0131 69.3875ZM42.4855 78.3111L40.4125 80.265C40.3768 80.3007 36.3021 84.1609 31.6914 88.2593C30.6787 89.1529 29.7613 89.963 28.9154 90.7017C29.1418 88.2117 29.3801 86.3412 29.3801 86.3173L30.3332 78.8949L22.875 78.2753C18.2881 77.8941 14.69 73.9863 14.69 69.3875V34.1099C14.69 31.739 15.6193 29.5111 17.323 27.8193C19.0148 26.1275 21.2547 25.1863 23.6137 25.1863H76.941C79.3119 25.1863 81.5398 26.1156 83.2316 27.8193C84.9234 29.5111 85.8646 31.7509 85.8646 34.1099V69.3875C85.8646 71.7584 84.9353 73.9863 83.2316 75.6781C81.5398 77.3699 79.3 78.3111 76.941 78.3111H42.4855Z" fill="#003594"/>
<path d="M98.9225 40.2576C96.9924 39.8644 95.098 41.1035 94.7049 43.0336C94.3117 44.9636 95.5508 46.858 97.4809 47.2511C102.127 48.2043 105.499 52.3384 105.499 57.0802V78.1681C105.499 83.1244 101.794 87.4015 96.8852 88.1045L92.9893 88.6644L93.9186 92.4888C94.1568 93.4539 94.3832 94.4904 94.6096 95.5031C92.5127 93.5492 90.1656 91.3093 88.033 89.2244L86.9965 88.1998H67.0166C64.4074 88.1998 62.6561 88.033 61.3932 87.1752C59.7609 86.0672 57.533 86.4841 56.425 88.1164C55.317 89.7486 55.734 91.9765 57.3662 93.0845C60.4281 95.1695 63.9547 95.3482 67.0166 95.3482H84.0775C85.2689 96.5039 87.3301 98.4816 89.4389 100.447C91.3689 102.246 92.9654 103.676 94.1807 104.725C96.5635 106.75 97.6715 107.477 99.1369 107.477C100.293 107.477 101.365 106.952 102.092 106.035C103.295 104.498 103.307 102.568 102.151 96.6587C101.984 95.8009 101.806 94.967 101.639 94.2045C108.12 91.6906 112.647 85.3523 112.647 78.1681V57.0802C112.659 48.9787 106.881 41.9017 98.9225 40.2576Z" fill="#003594"/>
<path d="M51.7785 71.8179C47.5014 71.8179 43.3195 69.7806 40.0074 66.0873C37.0766 62.8109 35.3252 58.7482 35.3252 55.1978V51.6593L38.8637 51.6236C38.9113 51.6236 43.1766 51.5759 50.2297 51.5759C52.2074 51.5759 53.8039 53.1724 53.8039 55.1501C53.8039 57.1279 52.2074 58.7244 50.2297 58.7244C47.5729 58.7244 45.3211 58.7363 43.534 58.7363C43.9867 59.5822 44.5824 60.4638 45.333 61.3097C47.2393 63.4423 49.5863 64.6576 51.7785 64.6576C53.9707 64.6576 56.3178 63.4304 58.224 61.3097C58.9984 60.44 59.6061 59.5345 60.0588 58.6648C58.4266 58.3312 57.1875 56.8777 57.1994 55.1501C57.2113 53.1843 58.8078 51.5878 60.7736 51.5878H60.7855C64.0143 51.5998 64.6576 51.6117 64.7887 51.6236L68.2318 51.7546V55.1978C68.2318 58.7482 66.4805 62.8109 63.5496 66.0873C60.2256 69.7806 56.0557 71.8179 51.7785 71.8179Z" fill="#9BCBEB"/>
</svg>
