<svg width="117" height="117" viewBox="0 0 117 117" fill="none" xmlns="http://www.w3.org/2000/svg">
<g clip-path="url(#clip0_2_9143)">
<path d="M33.722 73.1679C33.7042 72.9858 33.6471 72.8181 33.6471 72.636V71.0757C33.6471 70.333 33.7684 69.6011 34.0113 68.9048C34.0113 68.9048 37.8998 63.699 39.7386 57.5825C37.7247 53.3335 35.8966 48.0456 35.8966 42.8039C35.8966 41.5864 35.986 40.4082 36.1109 39.2476C33.4867 36.4983 29.941 34.9414 26.024 34.9414C17.9366 34.9414 11.3741 41.5398 11.3741 51.7944C11.3741 59.9995 18.0511 68.9045 18.0511 68.9045C18.2867 69.6008 18.4083 70.3328 18.4083 71.0754V72.6357C18.4083 74.5818 17.2728 76.3528 15.5018 77.1633L4.90074 81.4944C2.43689 82.6299 0.683715 84.8935 0.194692 87.5571L0.0125647 89.8887C-0.0802126 91.1028 0.333858 92.2988 1.16223 93.188C1.98694 94.0842 3.14757 94.5876 4.3651 94.5876H21.693L22.4034 85.4577L22.4498 85.2114C23.3175 80.4233 26.4811 76.3528 30.9012 74.3176L33.722 73.1679Z" fill="#9BCBEB"/>
<path d="M116.805 87.5571C116.32 84.8935 114.567 82.6296 112.103 81.4944L101.495 77.1633C99.7238 76.3528 98.5953 74.5818 98.5953 72.6357V71.0754C98.5953 70.3328 98.7133 69.6008 98.9559 68.9045C98.9559 68.9045 105.629 59.9995 105.629 51.7944C105.629 41.5398 99.0702 34.9414 90.9686 34.9414C87.059 34.9414 83.5133 36.4983 80.8817 39.2546C81.0104 40.4116 81.0995 41.5862 81.0995 42.8037C81.0995 48.0417 79.275 53.3298 77.2648 57.5786C79.1 63.6951 82.9955 68.9045 82.9955 68.9045C83.2311 69.6008 83.3561 70.3328 83.3561 71.0754V72.6357C83.3561 72.8179 83.2953 72.9856 83.2775 73.1677L85.9054 74.239C90.5114 76.3457 93.675 80.416 94.5534 85.2041L94.5963 85.4541L95.3033 94.5876H112.638C113.856 94.5876 115.016 94.0842 115.838 93.188C116.666 92.2988 117.08 91.1028 116.987 89.8887L116.805 87.5571Z" fill="#9BCBEB"/>
<path d="M84.0634 78.7485L71.2308 73.5034C69.0885 72.5178 67.7211 70.3755 67.7211 68.0261V66.1338C67.7211 65.2412 67.8639 64.3521 68.1603 63.5059C68.1603 63.5059 76.2298 52.7371 76.2298 42.8037C76.2298 30.3923 68.2926 22.4124 58.4984 22.4124C48.7079 22.4124 40.767 30.3926 40.767 42.8037C40.767 52.7371 48.8436 63.5059 48.8436 63.5059C49.1329 64.3521 49.2828 65.2412 49.2828 66.1338V68.0261C49.2828 70.3755 47.9046 72.5178 45.7657 73.5034L32.9332 78.7485C29.9518 80.116 27.8273 82.8582 27.2418 86.0859L26.5812 94.5874H58.4984H90.4156L89.7623 86.0859C89.1693 82.8584 87.0448 80.1162 84.0634 78.7485Z" fill="#003594"/>
</g>
<defs>
<clipPath id="clip0_2_9143">
<rect width="117" height="117" fill="white"/>
</clipPath>
</defs>
</svg>
