<svg width="112" height="112" viewBox="0 0 112 112" fill="none" xmlns="http://www.w3.org/2000/svg">
<g clip-path="url(#clip0_2_9137)">
<path d="M73.5 98C77.366 98 80.5 94.866 80.5 91C80.5 87.134 77.366 84 73.5 84C69.634 84 66.5 87.134 66.5 91C66.5 94.866 69.634 98 73.5 98Z" fill="#9BCBEB"/>
<path d="M73.5 28C77.366 28 80.5 24.866 80.5 21C80.5 17.134 77.366 14 73.5 14C69.634 14 66.5 17.134 66.5 21C66.5 24.866 69.634 28 73.5 28Z" fill="#9BCBEB"/>
<path d="M14 63C17.866 63 21 59.866 21 56C21 52.134 17.866 49 14 49C10.134 49 7 52.134 7 56C7 59.866 10.134 63 14 63Z" fill="#9BCBEB"/>
<path d="M98 42C94.9047 42.0094 91.9 43.0453 89.4566 44.9454C87.0131 46.8455 85.269 49.5024 84.4974 52.5H69.5027C69.0071 50.526 68.0835 48.6851 66.7972 47.1078C65.5109 45.5305 63.8935 44.2553 62.0595 43.3728C60.2255 42.4902 58.2199 42.0218 56.1847 42.0008C54.1495 41.9797 52.1346 42.4065 50.2828 43.2509L39.165 29.3552C40.9943 26.953 41.9897 24.0194 42 21C42 18.2311 41.1789 15.5243 39.6406 13.222C38.1022 10.9197 35.9157 9.12532 33.3576 8.06569C30.7994 7.00607 27.9845 6.72882 25.2687 7.26901C22.553 7.80921 20.0584 9.14258 18.1005 11.1005C16.1426 13.0584 14.8092 15.553 14.269 18.2687C13.7288 20.9845 14.0061 23.7994 15.0657 26.3576C16.1253 28.9157 17.9197 31.1022 20.222 32.6406C22.5243 34.1789 25.2311 35 28 35C29.9734 34.9949 31.923 34.5684 33.7183 33.7491L44.8343 47.6441C42.9964 50.0417 42.0004 52.9784 42.0004 55.9993C42.0004 59.0203 42.9964 61.9569 44.8343 64.3545L33.719 78.2495C31.9234 77.4306 29.9736 77.0046 28 77C25.2311 77 22.5243 77.8211 20.222 79.3594C17.9197 80.8978 16.1253 83.0843 15.0657 85.6424C14.0061 88.2006 13.7288 91.0155 14.269 93.7313C14.8092 96.447 16.1426 98.9416 18.1005 100.899C20.0584 102.857 22.553 104.191 25.2687 104.731C27.9845 105.271 30.7994 104.994 33.3576 103.934C35.9157 102.875 38.1022 101.08 39.6406 98.778C41.1789 96.4757 42 93.7689 42 91C41.9898 87.9806 40.9944 85.047 39.165 82.6448L50.2803 68.7498C52.1324 69.5945 54.1475 70.0214 56.183 70.0005C58.2184 69.9795 60.2243 69.5111 62.0586 68.6285C63.8928 67.7458 65.5105 66.4705 66.7969 64.893C68.0834 63.3155 69.0071 61.4743 69.5027 59.5H84.4974C85.1562 62.0295 86.5112 64.3235 88.4084 66.1215C90.3055 67.9196 92.6689 69.1496 95.23 69.6719C97.7912 70.1942 100.447 69.9879 102.897 69.0763C105.347 68.1648 107.492 66.5845 109.089 64.5151C110.686 62.4456 111.67 59.9699 111.93 57.369C112.191 54.7682 111.716 52.1464 110.562 49.8015C109.407 47.4566 107.617 45.4826 105.397 44.1035C103.177 42.7245 100.614 41.9957 98 42ZM21 21C21 19.6155 21.4105 18.2622 22.1797 17.111C22.9489 15.9599 24.0421 15.0627 25.3212 14.5328C26.6003 14.003 28.0078 13.8644 29.3656 14.1345C30.7235 14.4046 31.9708 15.0713 32.9498 16.0503C33.9287 17.0292 34.5954 18.2765 34.8655 19.6344C35.1356 20.9922 34.997 22.3997 34.4672 23.6788C33.9374 24.9579 33.0401 26.0511 31.889 26.8203C30.7379 27.5895 29.3845 28 28 28C26.1441 27.9979 24.3649 27.2597 23.0526 25.9474C21.7403 24.6351 21.0021 22.8559 21 21ZM28 98C26.6155 98 25.2622 97.5895 24.111 96.8203C22.9599 96.0511 22.0627 94.9579 21.5328 93.6788C21.003 92.3997 20.8644 90.9922 21.1345 89.6344C21.4046 88.2765 22.0713 87.0292 23.0503 86.0503C24.0292 85.0713 25.2765 84.4046 26.6344 84.1345C27.9922 83.8644 29.3997 84.003 30.6788 84.5329C31.9579 85.0627 33.0511 85.9599 33.8203 87.111C34.5895 88.2622 35 89.6155 35 91C34.9979 92.8559 34.2597 94.6351 32.9474 95.9474C31.6351 97.2597 29.8559 97.9979 28 98ZM56 63C54.6155 63 53.2622 62.5895 52.111 61.8203C50.9599 61.0511 50.0627 59.9579 49.5329 58.6788C49.003 57.3997 48.8644 55.9922 49.1345 54.6344C49.4046 53.2765 50.0713 52.0292 51.0503 51.0503C52.0292 50.0713 53.2765 49.4046 54.6344 49.1345C55.9922 48.8644 57.3997 49.003 58.6788 49.5328C59.9579 50.0627 61.0511 50.9599 61.8203 52.111C62.5895 53.2622 63 54.6155 63 56C62.9979 57.8559 62.2597 59.6351 60.9474 60.9474C59.6351 62.2597 57.8559 62.9979 56 63ZM98 63C96.6155 63 95.2622 62.5895 94.111 61.8203C92.9599 61.0511 92.0627 59.9579 91.5329 58.6788C91.003 57.3997 90.8644 55.9922 91.1345 54.6344C91.4046 53.2765 92.0713 52.0292 93.0503 51.0503C94.0292 50.0713 95.2765 49.4046 96.6344 49.1345C97.9922 48.8644 99.3997 49.003 100.679 49.5328C101.958 50.0627 103.051 50.9599 103.82 52.111C104.589 53.2622 105 54.6155 105 56C104.998 57.8559 104.26 59.6351 102.947 60.9474C101.635 62.2597 99.8559 62.9979 98 63Z" fill="#003594"/>
</g>
<defs>
<clipPath id="clip0_2_9137">
<rect width="112" height="112" fill="white"/>
</clipPath>
</defs>
</svg>
